<?xml version="1.0" encoding="UTF-8" standalone="no"?>
<!DOCTYPE svg PUBLIC "-//W3C//DTD SVG 1.1//EN"
 "http://www.w3.org/Graphics/SVG/1.1/DTD/svg11.dtd">
<!-- Generated by graphviz version 2.28.0 (20130201.1956)
 -->
<!-- Title: _anonymous_0 Pages: 1 -->
<svg width="456pt" height="98pt"
 viewBox="0.00 0.00 456.00 98.00" xmlns="http://www.w3.org/2000/svg" xmlns:xlink="http://www.w3.org/1999/xlink">
<g id="graph1" class="graph" transform="scale(1 1) rotate(0) translate(4 94)">
<title>_anonymous_0</title>
<!-- mpileaks -->
<g id="node1" class="node"><title>mpileaks</title>
<polygon fill="none" stroke="black" points="64.0078,-67 -0.00781298,-67 -0.00781298,-31 64.0078,-31 64.0078,-67"/>
<text text-anchor="middle" x="32" y="-45.6675" font-family="monaco" font-size="10.00">mpileaks</text>
</g>
<!-- mpich -->
<g id="node3" class="node"><title>mpich</title>
<polygon fill="none" stroke="black" points="256,-90 202,-90 202,-54 256,-54 256,-90"/>
<text text-anchor="middle" x="229" y="-68.6675" font-family="monaco" font-size="10.00">mpich</text>
</g>
<!-- mpileaks&#45;&gt;mpich -->
<g id="edge2" class="edge"><title>mpileaks&#45;&gt;mpich</title>
<path fill="none" stroke="black" d="M64.3301,-52.6953C99.0177,-56.7867 154.862,-63.3735 191.5,-67.6948"/>
<polygon fill="black" stroke="black" points="191.408,-71.2082 201.749,-68.9037 192.228,-64.2564 191.408,-71.2082"/>
</g>
<!-- callpath -->
<g id="node5" class="node"><title>callpath</title>
<polygon fill="none" stroke="black" points="164.008,-44 99.9922,-44 99.9922,-8 164.008,-8 164.008,-44"/>
<text text-anchor="middle" x="132" y="-22.6675" font-family="monaco" font-size="10.00">callpath</text>
</g>
<!-- mpileaks&#45;&gt;callpath -->
<g id="edge4" class="edge"><title>mpileaks&#45;&gt;callpath</title>
<path fill="none" stroke="black" d="M64.0078,-41.7227C72.23,-39.793 81.237,-37.6791 89.905,-35.6447"/>
<polygon fill="black" stroke="black" points="90.9218,-39.0013 99.8575,-33.3089 89.3223,-32.1865 90.9218,-39.0013"/>
</g>
<!-- callpath&#45;&gt;mpich -->
<g id="edge5" class="edge"><title>callpath&#45;&gt;mpich</title>
<path fill="none" stroke="black" d="M164.107,-41.0621C173.279,-45.5034 183.381,-50.3948 192.791,-54.9515"/>
<polygon fill="black" stroke="black" points="191.385,-58.1596 201.911,-59.3676 194.436,-51.8593 191.385,-58.1596"/>
</g>
<!-- dyninst -->
<g id="node7" class="node"><title>dyninst</title>
<polygon fill="none" stroke="black" points="258.007,-36 199.993,-36 199.993,-0 258.007,-0 258.007,-36"/>
<text text-anchor="middle" x="229" y="-14.6675" font-family="monaco" font-size="10.00">dyninst</text>
</g>
<!-- callpath&#45;&gt;dyninst -->
<g id="edge7" class="edge"><title>callpath&#45;&gt;dyninst</title>
<path fill="none" stroke="black" d="M164.107,-23.3805C172.262,-22.6937 181.153,-21.945 189.64,-21.2303"/>
<polygon fill="black" stroke="black" points="190.043,-24.7089 199.714,-20.382 189.455,-17.7336 190.043,-24.7089"/>
</g>
<!-- libdwarf -->
<g id="node9" class="node"><title>libdwarf</title>
<polygon fill="none" stroke="black" points="358.008,-59 293.992,-59 293.992,-23 358.008,-23 358.008,-59"/>
<text text-anchor="middle" x="326" y="-37.6675" font-family="monaco" font-size="10.00">libdwarf</text>
</g>
<!-- dyninst&#45;&gt;libdwarf -->
<g id="edge9" class="edge"><title>dyninst&#45;&gt;libdwarf</title>
<path fill="none" stroke="black" d="M258.246,-24.8385C266.265,-26.7801 275.166,-28.935 283.786,-31.0219"/>
<polygon fill="black" stroke="black" points="283.164,-34.4722 293.706,-33.4236 284.811,-27.6688 283.164,-34.4722"/>
</g>
<!-- libelf -->
<g id="node10" class="node"><title>libelf</title>
<polygon fill="none" stroke="black" points="448,-36 394,-36 394,-0 448,-0 448,-36"/>
<text text-anchor="middle" x="421" y="-14.6675" font-family="monaco" font-size="10.00">libelf</text>
</g>
<!-- dyninst&#45;&gt;libelf -->
<g id="edge12" class="edge"><title>dyninst&#45;&gt;libelf</title>
<path fill="none" stroke="black" d="M258.02,-15.8687C269.205,-15.1173 282.205,-14.3682 294,-14 322.431,-13.1124 329.57,-13.0839 358,-14 366.354,-14.2692 375.332,-14.742 383.79,-15.2703"/>
<polygon fill="black" stroke="black" points="383.562,-18.7629 393.772,-15.9325 384.026,-11.7782 383.562,-18.7629"/>
</g>
<!-- libdwarf&#45;&gt;libelf -->
<g id="edge10" class="edge"><title>libdwarf&#45;&gt;libelf</title>
<path fill="none" stroke="black" d="M358.226,-33.2773C366.57,-31.2138 375.653,-28.9677 384.221,-26.8486"/>
<polygon fill="black" stroke="black" points="385.101,-30.2363 393.969,-24.4378 383.421,-23.4411 385.101,-30.2363"/>
</g>
</g>
</svg>
