<?xml version="1.0" encoding="UTF-8" standalone="no"?>
<!DOCTYPE svg PUBLIC "-//W3C//DTD SVG 1.1//EN"
 "http://www.w3.org/Graphics/SVG/1.1/DTD/svg11.dtd">
<!-- Generated by graphviz version 2.28.0 (20130201.1956)
 -->
<!-- Title: _anonymous_0 Pages: 1 -->
<svg width="556pt" height="98pt"
 viewBox="0.00 0.00 556.00 98.00" xmlns="http://www.w3.org/2000/svg" xmlns:xlink="http://www.w3.org/1999/xlink">
<g id="graph1" class="graph" transform="scale(1 1) rotate(0) translate(4 94)">
<title>_anonymous_0</title>
<!-- mpileaks -->
<g id="node1" class="node"><title>mpileaks</title>
<polygon fill="none" stroke="black" points="64.0078,-67 -0.00781298,-67 -0.00781298,-31 64.0078,-31 64.0078,-67"/>
<text text-anchor="middle" x="32" y="-45.6675" font-family="monaco" font-size="10.00">mpileaks</text>
</g>
<!-- mpi -->
<g id="node3" class="node"><title>mpi</title>
<polygon fill="none" stroke="black" points="316,-90 262,-90 262,-54 316,-54 316,-90"/>
<text text-anchor="middle" x="289" y="-68.6675" font-family="monaco" font-size="10.00">mpi</text>
</g>
<!-- mpileaks&#45;&gt;mpi -->
<g id="edge2" class="edge"><title>mpileaks&#45;&gt;mpi</title>
<path fill="none" stroke="black" d="M64.0131,-51.7973C111.349,-56.0668 201.415,-64.1904 251.718,-68.7275"/>
<polygon fill="black" stroke="black" points="251.545,-72.226 261.819,-69.6386 252.174,-65.2543 251.545,-72.226"/>
</g>
<!-- callpath@1.0+debug -->
<g id="node5" class="node"><title>callpath@1.0+debug</title>
<polygon fill="none" stroke="black" points="224.018,-44 99.9824,-44 99.9824,-8 224.018,-8 224.018,-44"/>
<text text-anchor="middle" x="162" y="-22.6675" font-family="monaco" font-size="10.00">callpath@1.0+debug</text>
</g>
<!-- mpileaks&#45;&gt;callpath@1.0+debug -->
<g id="edge4" class="edge"><title>mpileaks&#45;&gt;callpath@1.0+debug</title>
<path fill="none" stroke="black" d="M64.3123,-43.3736C72.2478,-41.9477 81.0998,-40.3571 90.1364,-38.7333"/>
<polygon fill="black" stroke="black" points="90.7566,-42.178 99.98,-36.9645 89.5186,-35.2883 90.7566,-42.178"/>
</g>
<!-- callpath@1.0+debug&#45;&gt;mpi -->
<g id="edge5" class="edge"><title>callpath@1.0+debug&#45;&gt;mpi</title>
<path fill="none" stroke="black" d="M212.045,-44.0484C225.429,-48.9739 239.678,-54.2174 252.175,-58.8164"/>
<polygon fill="black" stroke="black" points="251.179,-62.1791 261.772,-62.3481 253.596,-55.6098 251.179,-62.1791"/>
</g>
<!-- dyninst -->
<g id="node7" class="node"><title>dyninst</title>
<polygon fill="none" stroke="black" points="318.007,-36 259.993,-36 259.993,-0 318.007,-0 318.007,-36"/>
<text text-anchor="middle" x="289" y="-14.6675" font-family="monaco" font-size="10.00">dyninst</text>
</g>
<!-- callpath@1.0+debug&#45;&gt;dyninst -->
<g id="edge7" class="edge"><title>callpath@1.0+debug&#45;&gt;dyninst</title>
<path fill="none" stroke="black" d="M224.035,-22.0937C232.74,-21.5367 241.482,-20.9772 249.586,-20.4585"/>
<polygon fill="black" stroke="black" points="250.06,-23.9354 259.816,-19.8038 249.613,-16.9497 250.06,-23.9354"/>
</g>
<!-- libdwarf -->
<g id="node9" class="node"><title>libdwarf</title>
<polygon fill="none" stroke="black" points="418.008,-59 353.992,-59 353.992,-23 418.008,-23 418.008,-59"/>
<text text-anchor="middle" x="386" y="-37.6675" font-family="monaco" font-size="10.00">libdwarf</text>
</g>
<!-- dyninst&#45;&gt;libdwarf -->
<g id="edge9" class="edge"><title>dyninst&#45;&gt;libdwarf</title>
<path fill="none" stroke="black" d="M318.246,-24.8385C326.265,-26.7801 335.166,-28.935 343.786,-31.0219"/>
<polygon fill="black" stroke="black" points="343.164,-34.4722 353.706,-33.4236 344.811,-27.6688 343.164,-34.4722"/>
</g>
<!-- libelf@0.8.11 -->
<g id="node10" class="node"><title>libelf@0.8.11</title>
<polygon fill="none" stroke="black" points="548.013,-36 453.987,-36 453.987,-0 548.013,-0 548.013,-36"/>
<text text-anchor="middle" x="501" y="-14.6675" font-family="monaco" font-size="10.00">libelf@0.8.11</text>
</g>
<!-- dyninst&#45;&gt;libelf@0.8.11 -->
<g id="edge12" class="edge"><title>dyninst&#45;&gt;libelf@0.8.11</title>
<path fill="none" stroke="black" d="M318.02,-15.8687C329.205,-15.1173 342.205,-14.3682 354,-14 382.431,-13.1124 389.564,-13.3069 418,-14 426.205,-14.2 434.868,-14.5124 443.368,-14.8766"/>
<polygon fill="black" stroke="black" points="443.464,-18.3845 453.613,-15.3423 443.782,-11.3917 443.464,-18.3845"/>
</g>
<!-- libdwarf&#45;&gt;libelf@0.8.11 -->
<g id="edge10" class="edge"><title>libdwarf&#45;&gt;libelf@0.8.11</title>
<path fill="none" stroke="black" d="M418.177,-34.6543C426.151,-33.0312 434.973,-31.2355 443.786,-29.4417"/>
<polygon fill="black" stroke="black" points="444.586,-32.8508 453.687,-27.4265 443.19,-25.9914 444.586,-32.8508"/>
</g>
</g>
</svg>
