<?xml version="1.0" encoding="UTF-8" standalone="no"?>
<!DOCTYPE svg PUBLIC "-//W3C//DTD SVG 1.1//EN"
 "http://www.w3.org/Graphics/SVG/1.1/DTD/svg11.dtd">
<!-- Generated by graphviz version 2.28.0 (20130201.1956)
 -->
<!-- Title: _anonymous_0 Pages: 1 -->
<svg width="658pt" height="123pt"
 viewBox="0.00 0.00 658.00 123.00" xmlns="http://www.w3.org/2000/svg" xmlns:xlink="http://www.w3.org/1999/xlink">
<g id="graph1" class="graph" transform="scale(1 1) rotate(0) translate(4 119)">
<title>_anonymous_0</title>
<!-- mpileaks@2.3\n%gcc@4.7.3\n=linux&#45;ppc64 -->
<g id="node1" class="node"><title>mpileaks@2.3\n%gcc@4.7.3\n=linux&#45;ppc64</title>
<polygon fill="none" stroke="black" points="88.0117,-89.0049 -0.0117195,-89.0049 -0.0117195,-40.9951 88.0117,-40.9951 88.0117,-89.0049"/>
<text text-anchor="middle" x="44" y="-75.0024" font-family="monaco" font-size="10.00">mpileaks@2.3</text>
<text text-anchor="middle" x="44" y="-61.6675" font-family="monaco" font-size="10.00">%gcc@4.7.3</text>
<text text-anchor="middle" x="44" y="-48.3325" font-family="monaco" font-size="10.00">=linux&#45;ppc64</text>
</g>
<!-- mpich@3.0.4\n%gcc@4.7.3\n=linux&#45;ppc64 -->
<g id="node3" class="node"><title>mpich@3.0.4\n%gcc@4.7.3\n=linux&#45;ppc64</title>
<polygon fill="none" stroke="black" points="363.012,-115.005 274.988,-115.005 274.988,-66.9951 363.012,-66.9951 363.012,-115.005"/>
<text text-anchor="middle" x="319" y="-101.002" font-family="monaco" font-size="10.00">mpich@3.0.4</text>
<text text-anchor="middle" x="319" y="-87.6675" font-family="monaco" font-size="10.00">%gcc@4.7.3</text>
<text text-anchor="middle" x="319" y="-74.3325" font-family="monaco" font-size="10.00">=linux&#45;ppc64</text>
</g>
<!-- mpileaks@2.3\n%gcc@4.7.3\n=linux&#45;ppc64&#45;&gt;mpich@3.0.4\n%gcc@4.7.3\n=linux&#45;ppc64 -->
<g id="edge2" class="edge"><title>mpileaks@2.3\n%gcc@4.7.3\n=linux&#45;ppc64&#45;&gt;mpich@3.0.4\n%gcc@4.7.3\n=linux&#45;ppc64</title>
<path fill="none" stroke="black" d="M88.2577,-69.1198C136.082,-73.6744 213.156,-81.0148 264.678,-85.9217"/>
<polygon fill="black" stroke="black" points="264.658,-89.4356 274.945,-86.8995 265.322,-82.4671 264.658,-89.4356"/>
</g>
<!-- callpath@1.0\n%gcc@4.7.3+debug\n=linux&#45;ppc64 -->
<g id="node5" class="node"><title>callpath@1.0\n%gcc@4.7.3+debug\n=linux&#45;ppc64</title>
<polygon fill="none" stroke="black" points="236.016,-63.0049 123.984,-63.0049 123.984,-14.9951 236.016,-14.9951 236.016,-63.0049"/>
<text text-anchor="middle" x="180" y="-49.0024" font-family="monaco" font-size="10.00">callpath@1.0</text>
<text text-anchor="middle" x="180" y="-35.6675" font-family="monaco" font-size="10.00">%gcc@4.7.3+debug</text>
<text text-anchor="middle" x="180" y="-22.3325" font-family="monaco" font-size="10.00">=linux&#45;ppc64</text>
</g>
<!-- mpileaks@2.3\n%gcc@4.7.3\n=linux&#45;ppc64&#45;&gt;callpath@1.0\n%gcc@4.7.3+debug\n=linux&#45;ppc64 -->
<g id="edge4" class="edge"><title>mpileaks@2.3\n%gcc@4.7.3\n=linux&#45;ppc64&#45;&gt;callpath@1.0\n%gcc@4.7.3+debug\n=linux&#45;ppc64</title>
<path fill="none" stroke="black" d="M88.136,-56.6303C96.2747,-55.0512 104.954,-53.3672 113.597,-51.6901"/>
<polygon fill="black" stroke="black" points="114.543,-55.0719 123.693,-49.7312 113.21,-48.2001 114.543,-55.0719"/>
</g>
<!-- callpath@1.0\n%gcc@4.7.3+debug\n=linux&#45;ppc64&#45;&gt;mpich@3.0.4\n%gcc@4.7.3\n=linux&#45;ppc64 -->
<g id="edge5" class="edge"><title>callpath@1.0\n%gcc@4.7.3+debug\n=linux&#45;ppc64&#45;&gt;mpich@3.0.4\n%gcc@4.7.3\n=linux&#45;ppc64</title>
<path fill="none" stroke="black" d="M236.328,-60.0005C245.808,-63.5988 255.638,-67.3298 265.054,-70.9038"/>
<polygon fill="black" stroke="black" points="264.093,-74.2827 274.685,-74.5591 266.578,-67.7383 264.093,-74.2827"/>
</g>
<!-- dyninst@8.1.2\n%gcc@4.7.3\n=linux&#45;ppc64 -->
<g id="node7" class="node"><title>dyninst@8.1.2\n%gcc@4.7.3\n=linux&#45;ppc64</title>
<polygon fill="none" stroke="black" points="366.013,-49.0049 271.987,-49.0049 271.987,-0.995117 366.013,-0.995117 366.013,-49.0049"/>
<text text-anchor="middle" x="319" y="-35.0024" font-family="monaco" font-size="10.00">dyninst@8.1.2</text>
<text text-anchor="middle" x="319" y="-21.6675" font-family="monaco" font-size="10.00">%gcc@4.7.3</text>
<text text-anchor="middle" x="319" y="-8.33252" font-family="monaco" font-size="10.00">=linux&#45;ppc64</text>
</g>
<!-- callpath@1.0\n%gcc@4.7.3+debug\n=linux&#45;ppc64&#45;&gt;dyninst@8.1.2\n%gcc@4.7.3\n=linux&#45;ppc64 -->
<g id="edge7" class="edge"><title>callpath@1.0\n%gcc@4.7.3+debug\n=linux&#45;ppc64&#45;&gt;dyninst@8.1.2\n%gcc@4.7.3\n=linux&#45;ppc64</title>
<path fill="none" stroke="black" d="M236.328,-33.346C244.67,-32.4936 253.283,-31.6134 261.646,-30.7588"/>
<polygon fill="black" stroke="black" points="262.096,-34.2312 271.688,-29.7326 261.384,-27.2674 262.096,-34.2312"/>
</g>
<!-- libdwarf@20130729\n%gcc@4.7.3\n=linux&#45;ppc64 -->
<g id="node9" class="node"><title>libdwarf@20130729\n%gcc@4.7.3\n=linux&#45;ppc64</title>
<polygon fill="none" stroke="black" points="520.017,-75.0049 401.983,-75.0049 401.983,-26.9951 520.017,-26.9951 520.017,-75.0049"/>
<text text-anchor="middle" x="461" y="-61.0024" font-family="monaco" font-size="10.00">libdwarf@20130729</text>
<text text-anchor="middle" x="461" y="-47.6675" font-family="monaco" font-size="10.00">%gcc@4.7.3</text>
<text text-anchor="middle" x="461" y="-34.3325" font-family="monaco" font-size="10.00">=linux&#45;ppc64</text>
</g>
<!-- dyninst@8.1.2\n%gcc@4.7.3\n=linux&#45;ppc64&#45;&gt;libdwarf@20130729\n%gcc@4.7.3\n=linux&#45;ppc64 -->
<g id="edge9" class="edge"><title>dyninst@8.1.2\n%gcc@4.7.3\n=linux&#45;ppc64&#45;&gt;libdwarf@20130729\n%gcc@4.7.3\n=linux&#45;ppc64</title>
<path fill="none" stroke="black" d="M366.229,-33.5854C374.358,-35.0951 382.972,-36.6949 391.555,-38.2888"/>
<polygon fill="black" stroke="black" points="391.115,-41.7668 401.586,-40.1516 392.393,-34.8845 391.115,-41.7668"/>
</g>
<!-- libelf@0.8.11\n%gcc@4.7.3\n=linux&#45;ppc64 -->
<g id="node10" class="node"><title>libelf@0.8.11\n%gcc@4.7.3\n=linux&#45;ppc64</title>
<polygon fill="none" stroke="black" points="650.013,-49.0049 555.987,-49.0049 555.987,-0.995117 650.013,-0.995117 650.013,-49.0049"/>
<text text-anchor="middle" x="603" y="-35.0024" font-family="monaco" font-size="10.00">libelf@0.8.11</text>
<text text-anchor="middle" x="603" y="-21.6675" font-family="monaco" font-size="10.00">%gcc@4.7.3</text>
<text text-anchor="middle" x="603" y="-8.33252" font-family="monaco" font-size="10.00">=linux&#45;ppc64</text>
</g>
<!-- dyninst@8.1.2\n%gcc@4.7.3\n=linux&#45;ppc64&#45;&gt;libelf@0.8.11\n%gcc@4.7.3\n=linux&#45;ppc64 -->
<g id="edge12" class="edge"><title>dyninst@8.1.2\n%gcc@4.7.3\n=linux&#45;ppc64&#45;&gt;libelf@0.8.11\n%gcc@4.7.3\n=linux&#45;ppc64</title>
<path fill="none" stroke="black" d="M366.357,-20.3495C377.982,-19.3743 390.437,-18.4926 402,-18 454.397,-15.7676 467.603,-15.7676 520,-18 528.22,-18.3502 536.892,-18.8971 545.395,-19.5344"/>
<polygon fill="black" stroke="black" points="545.397,-23.0455 555.643,-20.3495 545.952,-16.0675 545.397,-23.0455"/>
</g>
<!-- libdwarf@20130729\n%gcc@4.7.3\n=linux&#45;ppc64&#45;&gt;libelf@0.8.11\n%gcc@4.7.3\n=linux&#45;ppc64 -->
<g id="edge10" class="edge"><title>libdwarf@20130729\n%gcc@4.7.3\n=linux&#45;ppc64&#45;&gt;libelf@0.8.11\n%gcc@4.7.3\n=linux&#45;ppc64</title>
<path fill="none" stroke="black" d="M520.156,-40.1995C528.595,-38.6323 537.271,-37.0212 545.672,-35.4608"/>
<polygon fill="black" stroke="black" points="546.558,-38.8563 555.751,-33.5891 545.28,-31.9739 546.558,-38.8563"/>
</g>
</g>
</svg>
